<?xml version="1.0" encoding="utf-8"?>
<!-- Generator: Adobe Illustrator 23.0.3, SVG Export Plug-In . SVG Version: 6.00 Build 0)  -->
<svg version="1.1" id="Layer_1" xmlns="http://www.w3.org/2000/svg" xmlns:xlink="http://www.w3.org/1999/xlink" x="0px" y="0px"
	 viewBox="0 0 48 48" style="enable-background:new 0 0 48 48;" xml:space="preserve">
<style type="text/css">
	.st0{fill:#0055B8;}
	.st1{fill:#67CFE3;}
	.st2{fill:#E5007D;}
</style>
<g>
	<g id="Icons_13_">
		<path class="st1" d="M28,29.5V14.3c1.1,0.8,1.8,2,2,3.4c0.1,0.7,0.7,1.3,1.5,1.3c0.1,0,0.1,0,0.2,0c0.8-0.1,1.4-0.9,1.3-1.7
			c-0.7-4.3-4.6-7.5-9-7.3c-4.4-0.2-8.2,2.9-9,7.3c-0.1,0.8,0.5,1.6,1.3,1.7c0.8,0.1,1.6-0.5,1.7-1.3c0.2-1.4,0.9-2.6,2-3.4v15.2
			c0,0.8,0.7,1.5,1.5,1.5s1.5-0.7,1.5-1.5V22h2v7.5c0,0.8,0.7,1.5,1.5,1.5S28,30.3,28,29.5z"/>
		<circle class="st1" cx="24" cy="4" r="4"/>
		<path class="st1" d="M11.6,25.6c-0.8-0.8-2.1-0.8-2.9,0c0,0,0,0,0,0c-0.8,0.8-0.8,2.2,0,3l3.8,3.6c0.5,0.5,0.5,1.3,0,1.7
			c-0.5,0.5-1.2,0.5-1.7,0c0,0,0,0,0,0L6,29V13c0-1.7-1.3-3-3-3c-1.7,0-3,1.3-3,3v17.4c0,0.8,0.3,1.6,0.9,2.1L12,44v4h9V38
			c0.1-1.8-0.6-3.6-1.8-4.9L11.6,25.6z"/>
		<path class="st1" d="M45,10c-1.7,0-3,1.3-3,3v16l-4.7,5c-0.5,0.5-1.2,0.5-1.7,0c0,0,0,0,0,0c-0.5-0.5-0.5-1.3,0-1.7l3.8-3.6
			c0.8-0.8,0.8-2.2,0-3c-0.8-0.8-2.1-0.8-2.9,0c0,0,0,0,0,0l-7.6,7.5c-1.3,1.3-1.9,3-1.8,4.9v10h9v-4l11.1-11.5
			c0.6-0.6,0.9-1.3,0.9-2.1V13C48,11.3,46.7,10,45,10z"/>
	</g>
</g>
</svg>
