<?xml version="1.0" encoding="utf-8"?>
<!-- Generator: Adobe Illustrator 23.0.3, SVG Export Plug-In . SVG Version: 6.00 Build 0)  -->
<svg version="1.1" id="Layer_1" xmlns="http://www.w3.org/2000/svg" xmlns:xlink="http://www.w3.org/1999/xlink" x="0px" y="0px"
	 viewBox="0 0 48 48" style="enable-background:new 0 0 48 48;" xml:space="preserve">
<style type="text/css">
	.st0{fill:#0055B8;}
	.st1{fill:#67CFE3;}
	.st2{fill:#E5007D;}
</style>
<g>
	<g id="Icons_19_">
		<path class="st1" d="M39,0H9C7.3,0,6,1.3,6,3v42c0,1.7,1.3,3,3,3h30c1.7,0,3-1.3,3-3V3C42,1.3,40.7,0,39,0z M38,44H10V4h28V44z"/>
		<path class="st1" d="M28.6,13.6l0.4-0.4v7.4c0,0.8,0.7,1.5,1.5,1.5s1.5-0.7,1.5-1.5v-11C32,8.7,31.3,8,30.5,8
			c-0.4,0-0.8,0.2-1.1,0.4l-3,3c-0.6,0.6-0.6,1.5,0,2.1C27,14.1,28,14.1,28.6,13.6C28.6,13.6,28.6,13.6,28.6,13.6z"/>
		<path class="st1" d="M20.1,26.1c-0.6-0.2-1.2-0.1-1.6,0.3l-3,3c-0.6,0.6-0.6,1.5,0,2.1s1.5,0.6,2.1,0l0.4-0.4v7.4
			c0,0.8,0.7,1.5,1.5,1.5s1.5-0.7,1.5-1.5v-11C21,26.9,20.6,26.3,20.1,26.1z"/>
		<path class="st1" d="M28,40h3c1.7,0,3-1.3,3-3v-8c0-1.7-1.3-3-3-3h-3c-1.7,0-3,1.3-3,3v8C25,38.7,26.3,40,28,40z M28,29h3v8h-3V29
			z"/>
		<path class="st1" d="M17,22h3c1.7,0,3-1.3,3-3v-8c0-1.7-1.3-3-3-3h-3c-1.7,0-3,1.3-3,3v8C14,20.7,15.3,22,17,22z M17,11h3v8h-3V11
			z"/>
	</g>
</g>
</svg>
