<svg xmlns="http://www.w3.org/2000/svg" viewBox="0 0 37.69 37.62"><defs><style>.cls-1{fill:#fff;}</style></defs><title>education</title><g id="Calque_2" data-name="Calque 2"><g id="Layer_1" data-name="Layer 1"><path class="cls-1" d="M37.69,34.42c0,1.23-.52,1.73-1.74,1.74-4.36,0-8.72,0-13.08.06a2.09,2.09,0,0,0-1.08.34c-2.23,1.44-3.8,1.42-6-.07a1.89,1.89,0,0,0-1-.29c-4.26,0-8.52,0-12.79-.05C.33,36.15,0,35.84,0,34.2c0-5.94,0-11.88,0-17.82a2.36,2.36,0,0,1,1.1-2.1,13.82,13.82,0,0,1,6.83-2.6,15.78,15.78,0,0,1,9.74,1.73,2.12,2.12,0,0,0,2.35,0,16.09,16.09,0,0,1,15.64.28c.23.13.45.29.68.43a2.54,2.54,0,0,1,1.34,2.49C37.59,19.48,37.69,31.36,37.69,34.42Zm-2.94-2.51c0-.27.06-.39.06-.51,0-4.78,0-9.56,0-14.34a1.13,1.13,0,0,0-.53-.82,13.31,13.31,0,0,0-13.46,0,.91.91,0,0,0-.5,1c0,4.66,0,9.31,0,14,0,.2,0,.41.06.75A18.11,18.11,0,0,1,34.75,31.91Zm-17.46,0c0-.3.06-.47.06-.63,0-4.73,0-9.46,0-14.19a.91.91,0,0,0-.61-.89,13.36,13.36,0,0,0-13.33,0,1,1,0,0,0-.6,1.05c0,4.6,0,9.21,0,13.81,0,.24,0,.47,0,.87A18.11,18.11,0,0,1,17.29,31.9Z"/><path class="cls-1" d="M0,10.06a1.52,1.52,0,0,1,1-1.4c2.5-1.24,5-2.51,7.47-3.75L17.91.23a1.71,1.71,0,0,1,1.68,0L36.7,8.77c1,.52,1.27,1.44.61,2.22a1.16,1.16,0,0,1-1.52.35c-1.51-.71-3-1.42-4.53-2.16-3.93-1.95-7.85-3.9-11.77-5.88a1.31,1.31,0,0,0-1.3,0c-5,2.52-10,5-15.08,7.51a12.26,12.26,0,0,1-1.29.56A1.3,1.3,0,0,1,0,10.06Z"/></g></g></svg>