<?xml version="1.0" encoding="utf-8"?>
<!-- Generator: Adobe Illustrator 23.0.3, SVG Export Plug-In . SVG Version: 6.00 Build 0)  -->
<!DOCTYPE svg PUBLIC "-//W3C//DTD SVG 1.1//EN" "http://www.w3.org/Graphics/SVG/1.1/DTD/svg11.dtd" [
	<!ENTITY ns_extend "http://ns.adobe.com/Extensibility/1.0/">
	<!ENTITY ns_ai "http://ns.adobe.com/AdobeIllustrator/10.0/">
	<!ENTITY ns_graphs "http://ns.adobe.com/Graphs/1.0/">
	<!ENTITY ns_vars "http://ns.adobe.com/Variables/1.0/">
	<!ENTITY ns_imrep "http://ns.adobe.com/ImageReplacement/1.0/">
	<!ENTITY ns_sfw "http://ns.adobe.com/SaveForWeb/1.0/">
	<!ENTITY ns_custom "http://ns.adobe.com/GenericCustomNamespace/1.0/">
	<!ENTITY ns_adobe_xpath "http://ns.adobe.com/XPath/1.0/">
]>
<svg version="1.1" id="Calque_1" xmlns:x="&ns_extend;" xmlns:i="&ns_ai;" xmlns:graph="&ns_graphs;"
	 xmlns="http://www.w3.org/2000/svg" xmlns:xlink="http://www.w3.org/1999/xlink" x="0px" y="0px" viewBox="0 0 34 48"
	 style="enable-background:new 0 0 34 48;" xml:space="preserve">
<style type="text/css">
	.st0{fill:#0072ce;}
</style>
<metadata>
	<sfw  xmlns="&ns_sfw;">
		<slices></slices>
		<sliceSourceBounds  bottomLeftOrigin="true" height="48" width="34" x="0" y="0"></sliceSourceBounds>
	</sfw>
</metadata>
<title>Asset 960</title>
<g id="Layer_2">
	<g id="Icons">
		<path class="st0" d="M21,3c0-1.7-1.3-3-3-3s-3,1.3-3,3v3h6V3z"/>
		<path class="st0" d="M15,26h6v-2h5c4.4,0,8-3.6,8-8s-3.6-8-8-8H11.6C10.9,7.4,10,7,9,7H4c-2.2,0-4,1.8-4,4s1.8,4,4,4h5
			c1,0,1.9-0.4,2.6-1H26c1.1,0,2,0.9,2,2s-0.9,2-2,2h-5v-2h-6v2h-3c-4.4,0-8,3.6-8,8s3.6,8,8,8h10c1.1,0,2,0.9,2,2s-0.9,2-2,2h-1v-2
			h-6v2h-2c-1.7,0-3,1.3-3,3s1.3,3,3,3h2v1c0,0.3,0.1,0.7,0.2,1c0,0.1,0.1,0.3,0.2,0.4c0,0.1,0.1,0.1,0.1,0.2c0,0.1,0.1,0.1,0.1,0.2
			c0.3,0.5,0.8,0.8,1.4,1c0.1,0,0.1,0.1,0.2,0.1c0.1,0,0.1,0,0.2,0.1c0.1,0,0.1,0,0.2,0c0.3,0.1,0.7,0.1,1,0c0.1,0,0.1,0,0.2,0
			c0.7-0.2,1.3-0.6,1.7-1.2c0,0,0.1-0.1,0.1-0.2c0-0.1,0.1-0.1,0.1-0.2c0.1-0.1,0.1-0.3,0.2-0.4c0.1-0.3,0.2-0.7,0.2-1v-1h1
			c4.4,0,8-3.6,8-8s-3.6-8-8-8H12c-1.1,0-2-0.9-2-2s0.9-2,2-2h3V26z M4,11c-0.6,0-1-0.4-1-1s0.4-1,1-1s1,0.4,1,1C5,10.6,4.6,11,4,11
			z"/>
	</g>
</g>
</svg>
