<?xml version="1.0" encoding="utf-8"?>
<!-- Svg Vector Icons : http://www.onlinewebfonts.com/icon -->
<!DOCTYPE svg PUBLIC "-//W3C//DTD SVG 1.1//EN" "http://www.w3.org/Graphics/SVG/1.1/DTD/svg11.dtd">
<svg version="1.1" xmlns="http://www.w3.org/2000/svg" xmlns:xlink="http://www.w3.org/1999/xlink" x="0px" y="0px" viewBox="0 0 1000 1000" enable-background="new 0 0 1000 1000" xml:space="preserve">
<metadata> Svg Vector Icons : http://www.onlinewebfonts.com/icon </metadata>
<g><path fill="#727272" d="M979,896.6c-5.2-5.2-174.7-174.7-268.6-268.7c46.1-63.7,73.3-142,73.3-226.6c0-213.6-173.2-386.8-386.8-386.8C183.2,14.6,10,187.7,10,401.4s173.2,386.8,386.8,386.8c89.1,0,171.2-30.2,236.6-80.8c94.1,94.1,261.8,261.8,267.4,267.4c7.8,7.8,47.9,21.6,74.3-4.8S986.2,903.9,979,896.6z M120.5,401.4c0-152.6,123.7-276.3,276.3-276.3c152.6,0,276.3,123.7,276.3,276.3S549.4,677.7,396.8,677.7C244.2,677.7,120.5,554,120.5,401.4z"/></g>
</svg>