<svg xmlns="http://www.w3.org/2000/svg" viewBox="0 0 39.28 39.28"><defs><style>.cls-1{fill:#fff;}</style></defs><title>youth-organizations</title><g id="Calque_2" data-name="Calque 2"><g id="Layer_1" data-name="Layer 1"><g id="Icons"><path class="cls-1" d="M22.86,24.09V11.68a4.1,4.1,0,0,1,1.64,2.77,1.23,1.23,0,0,0,1.22,1.06h.16A1.26,1.26,0,0,0,27,14.13a7.16,7.16,0,0,0-7.35-6,7.13,7.13,0,0,0-7.35,6,1.24,1.24,0,0,0,2.45.32,4.05,4.05,0,0,1,1.63-2.77V24.09a1.23,1.23,0,0,0,2.45,0V18h1.63v6.13a1.23,1.23,0,0,0,2.45,0Z"/><circle class="cls-1" cx="19.6" cy="3.27" r="3.27"/><path class="cls-1" d="M9.47,20.9a1.68,1.68,0,0,0-2.37,0h0a1.78,1.78,0,0,0,0,2.45l3.11,2.94a1,1,0,0,1,0,1.39.94.94,0,0,1-1.39,0h0l-3.92-4V10.61A2.4,2.4,0,0,0,2.45,8.17,2.4,2.4,0,0,0,0,10.61V24.82a2.22,2.22,0,0,0,.73,1.72L9.8,35.93v3.26h7.35V31a5.54,5.54,0,0,0-1.47-4Z"/><path class="cls-1" d="M36.74,8.17a2.41,2.41,0,0,0-2.45,2.44V23.68l-3.83,4.08a.94.94,0,0,1-1.39,0h0a.94.94,0,0,1,0-1.39l3.1-2.94a1.78,1.78,0,0,0,0-2.45,1.68,1.68,0,0,0-2.37,0h0l-6.2,6.13a5.12,5.12,0,0,0-1.47,4v8.17h7.35V36l9.06-9.39a2.36,2.36,0,0,0,.74-1.72V10.61A2.54,2.54,0,0,0,36.74,8.17Z"/></g></g></g></svg>