<svg id="Calque_1" data-name="Calque 1" xmlns="http://www.w3.org/2000/svg" viewBox="0 0 47.98 32"><defs><style>.cls-1{fill:#fff;}</style></defs><title>youth-organizations</title><g id="Layer_2" data-name="Layer 2"><g id="Icons"><path class="cls-1" d="M12.18,17.84A11.74,11.74,0,0,1,13.59,14a12.07,12.07,0,0,1,1.28-1.81,7.29,7.29,0,0,1,.53-.58A9.81,9.81,0,0,0,10,10,10,10,0,0,0,5,28.64V30a2,2,0,0,0,2,2h6a2,2,0,0,0,2-2h0V27.92A10.92,10.92,0,0,1,13.6,26,12,12,0,0,1,12.18,17.84ZM3,20a7,7,0,0,1,2-4.92v9.84A7,7,0,0,1,3,20Z"/><circle class="cls-1" cx="9.99" cy="4" r="4"/><circle class="cls-1" cx="37.99" cy="4" r="4"/><path class="cls-1" d="M38,10a9.84,9.84,0,0,0-5.44,1.61,8,8,0,0,1,.55.61A11.74,11.74,0,0,1,34.37,14a12,12,0,0,1,0,12A12.37,12.37,0,0,1,33,27.9V30a2,2,0,0,0,2,2h6a2,2,0,0,0,2-2V28.64A10,10,0,0,0,38,10Zm5,14.92V15.08A7,7,0,0,1,43,24.92Z"/><circle class="cls-1" cx="23.99" cy="4" r="4"/><path class="cls-1" d="M34,20a9.84,9.84,0,0,0-1-4.33l-.19-.38A10.2,10.2,0,0,0,31,12.87,10,10,0,0,0,24,10a10.89,10.89,0,0,0-1.89.17A9.81,9.81,0,0,0,17,12.86a9.51,9.51,0,0,0-1.81,2.42,3,3,0,0,0-.18.36,9.54,9.54,0,0,0-.84,2.55A10,10,0,0,0,15,24.34c.06.12.12.25.19.37A10,10,0,0,0,19,28.64v.46s0,.06,0,.09,0,0,0,.08V30a2,2,0,0,0,2,2h6a2,2,0,0,0,2-2v-.73s0-.05,0-.08,0-.06,0-.09v-.46a9.87,9.87,0,0,0,2-1.52A10.2,10.2,0,0,0,32.8,24.7c.07-.12.13-.25.19-.38A9.94,9.94,0,0,0,34,20ZM19,24.91a1.12,1.12,0,0,1-.18-.2A6.85,6.85,0,0,1,17,20.36a2.89,2.89,0,0,0,0-.72,6.88,6.88,0,0,1,1.82-4.36c.05-.07.12-.13.18-.2Zm10.18-.21a1.18,1.18,0,0,1-.18.21V15.09a1.12,1.12,0,0,1,.18.2A6.84,6.84,0,0,1,31,19.73a4.86,4.86,0,0,0,0,.54A6.82,6.82,0,0,1,29.17,24.7Z"/></g></g></svg>