<?xml version="1.0" encoding="utf-8"?>
<!-- Generator: Adobe Illustrator 23.0.3, SVG Export Plug-In . SVG Version: 6.00 Build 0)  -->
<!DOCTYPE svg PUBLIC "-//W3C//DTD SVG 1.1//EN" "http://www.w3.org/Graphics/SVG/1.1/DTD/svg11.dtd" [
	<!ENTITY ns_extend "http://ns.adobe.com/Extensibility/1.0/">
	<!ENTITY ns_ai "http://ns.adobe.com/AdobeIllustrator/10.0/">
	<!ENTITY ns_graphs "http://ns.adobe.com/Graphs/1.0/">
	<!ENTITY ns_vars "http://ns.adobe.com/Variables/1.0/">
	<!ENTITY ns_imrep "http://ns.adobe.com/ImageReplacement/1.0/">
	<!ENTITY ns_sfw "http://ns.adobe.com/SaveForWeb/1.0/">
	<!ENTITY ns_custom "http://ns.adobe.com/GenericCustomNamespace/1.0/">
	<!ENTITY ns_adobe_xpath "http://ns.adobe.com/XPath/1.0/">
]>
<svg version="1.1" id="layer" xmlns:x="&ns_extend;" xmlns:i="&ns_ai;" xmlns:graph="&ns_graphs;"
	 xmlns="http://www.w3.org/2000/svg" xmlns:xlink="http://www.w3.org/1999/xlink" x="0px" y="0px" viewBox="0 0 599.5 228.4"
	 style="enable-background:new 0 0 599.5 228.4;" xml:space="preserve">
<style type="text/css">
	.st0{fill:#0072CE;}
	.st1{fill:#FFFFFF;}
</style>
<metadata>
	<sfw  xmlns="&ns_sfw;">
		<slices></slices>
		<sliceSourceBounds  bottomLeftOrigin="true" height="228.4" width="599.5" x="20.6" y="216.5"></sliceSourceBounds>
	</sfw>
</metadata>
<path class="st0" d="M13.4,220c0,1.9-2.5,1.9-2.7,3.4c-0.3,0.1-0.6,0.2-0.8,0.2c-5-1-7-3.4-7.7-8.3c0-0.8,0.6-2.1-1.5-1.7
	c-1,0.2-0.8-1.7-0.2-1.9c2.5-0.8,2.7-3.4,4.8-4.4c1.3-0.6,0.2-0.8-0.4-1.3c-4.4-2.5-4.6-5.2-0.6-8.5c1.5-1,1.7-2.5,0-3.2
	c-1-0.2-1.7-1.2-1.5-2.2c0.1-0.4,0.2-0.7,0.5-1c0.6-1,1.7-1.7,0-2.9c-0.4-0.2,0-1,1-1.3c3.4-0.8,3.4-2.7,1-5.2c-1-1-2.9-3.2-0.4-4.6
	c0.8-0.4,1.2-1.3,1-2.1c0-2.9-1.3-5.7-0.8-8.7c0.1-0.5-0.2-0.9-0.6-1c-3.2-1.9-1.7-3.4,0.4-4.8c-2.9-2.3-3.4-5.5-1.3-8.1l0.2-0.2
	c-1.5-3.6,1.7-6.8,1.7-10.4c-0.2-3.4-3.6-5.9-2.7-9.6c0.2-1-0.4-2.1,1.3-2.7c0.8-0.2,1-1,0.4-1.9c-0.8-1.7-0.4-2.9,2.1-3.6
	c-2.7-1.5-3.1-3.1-1.3-5c0.8-0.6,0.8-1.8,0.2-2.5l-0.2-0.2c-2.3-2.1-2.3-4-0.4-6.2c0.2-0.2,0.6-0.2,0.4-0.6
	c-1.7-4.8,0.6-9.8,0.8-14.8c0.2-4.2-3.8-7.2-2.7-11.2c0.2-0.6-0.4-0.8-1-1c-0.8,0-1.3-0.8-1-1c2.1-0.8,1.5-3.4,3.2-4.2
	c3.2-1.5,3.6-2.9,1-5.2c-1-1-2.3-1,0.2-2.1c2.7-1.3,2.7-6.2,0.6-8.3c-1.1-1-1.2-2.7-0.2-3.8c1.2-1.8,1.6-2.6-0.3-3.9
	c-0.2-0.3-0.5-0.5-0.8-0.6c2.9-2.3-2.5-5,0.6-8.1c2.3-2.1-0.8-6.4,1.7-9.1c1-1-0.6-1-1-1.7c-0.8-1.5-1.9-3.2,1.5-3.6
	c0.6,0,1.7,0.6,1.7-0.8c0-1,0.2-2.1-1-2.3c-2.1-0.2-1.5-1.5-1.5-2.3c0.2-1.5,1.7-1,2.5-1c3.4,0.2,6.6,0.2,7.2-3.8
	c0.2-1.3,1.5-0.8,2.3-0.8c11.9-0.4,23.7-0.8,35.6-0.6c4.2,0,8.5-1.3,12.9-0.2c1,0.2,2.9-2.3,5.2-1.7c1.3,0.2,2.9-0.6,3.8,1.5
	c0.6,1.3,4.4,1,5,0.2c1.5-1.9,2.9-1,4.4-1h11.2c0.6,0.2,1.2-0.1,1.5-0.6c1-1.3,2.7-1.5,3.6,0.2c0.4,0.9,1.4,1.3,2.2,0.9h0.1
	c5-2.5,10.6-0.6,15.9-1.3c2.3-0.2,4.8,0.6,7-1.3c1-0.4,2.2-0.4,3.2,0.2c1.3,1,2.7,2.3,4-0.2c0.4-0.8,1.9-0.2,2.5,0.6
	c1,1.5,2.1,1.7,3.4,0.2c0.6-0.8,1.7-0.4,2.3-0.4h11.5c0.8,0,1.9,0.8,2.1-0.6c0.4-0.7,1.2-1,1.9-0.6c4.2,2.7,8.1-1.3,12.3-0.2
	c4.4,1.3,9.3,0.8,14,0.6c2.1,0,4.4,0.6,6.2-1.3c0.5-0.3,1.2-0.3,1.7,0c3.2,2.7,5.9-0.8,9.3-0.2c3.6,0.8,7.5,0.6,11.2,0.8
	c1.3,0,2.9,0.6,3.4-1.5c0.2-1,6.6-0.4,7.7,0.6c1.8,1.5,4.5,1.5,6.4,0c0.6-0.8,1.5-0.4,2.3-0.4c3.4,0.2,6.6-0.2,10,0.4
	c1.7,0.4,4.2,1.3,6.2-1.3c0.8-1.3,4.2-0.6,6.4-0.2c1.5,0.3,3.1,0.5,4.6,0.4c9.6-0.4,19.1,1,28.8,0.6c1.3,0,2.9,0.6,3.4-1.5
	c0.2-0.8,1-0.6,1.7,0c1.9,1.9,2.9,1.9,4.6,0.2c0.3-0.3,0.7-0.4,1-0.2c2.9,0.6,6.4-1,8.5,2.1c0.3,0.3,0.7,0.4,1,0.2
	c3.6-3.4,8.1-1,12.3-1.5c2.7-0.2,6.8,0.8,8.7,0c2.5-1.3,3.6-0.8,5.2,0.4c0.6,0.1,1.2,0.1,1.7-0.2c1-1.9,1.9-2.9,2.7,0
	c0.4,0.2,0.8,0.2,1.3,0.2c2.5-3.8,6.8-1.9,9.8-1.7c10.2,0.8,20.4,0.8,30.6,1.5c3.4,0.2,6.8,0.4,10.2,0.4c1.5,0,3.4,0.8,4.2-1.5
	c0.9-0.8,2.2-0.7,3,0.2c0.1,0.1,0.2,0.3,0.3,0.5c0.6,1.5,2.3,1.5,3.6,0.6c2.5-1.9,3.4-1.9,5,0.8c1.7-1,3.4-4.2,5.7-0.2
	c0.8,0.9,2.2,1.1,3.2,0.4c2.7-1.7,5.5-2.5,8.1,0.4c0.5,0.4,1.2,0.4,1.7,0c3.6-2.3,9.1-2.5,12.3-0.2c1,0.6,1.5,0.2,2.3-0.2
	c1.5-0.8,3.8-1.7,4.2,1c0.2,1.5,1.5,1,2.3,1h26.1c2.1-1.9,4.4-0.6,6.8-0.8c0.8,0,2.9,0.8,2.9-1.5c0-0.6,2.1-0.6,2.7-0.2
	c2.4,1.4,5.4,1.1,7.7-0.6c0.3-0.4,0.9-0.5,1.3-0.1l0.1,0.1c1,1,2.6,1.1,3.6,0.1c0.2-0.2,0.4-0.5,0.6-0.8c0.2-0.4,3.4-0.8,3.6-0.4
	c0.4,1,1.9,1,1.9,1.3c2.7,4.6,3.4,0,3.8-0.8c1.3-2.9,4-1.9,5.7-1.3c1.7,0.6,3.4,0.8,4.4,0.2c4.8-3.2,10.6-2.5,15.9-2.7
	c11.2-0.8,22.3-2.1,33.5-2.7c0.6,0,1.2-0.1,1.7-0.4c0.8-4.4,5.2-1.7,7.9-2.7c1.5-0.6,3.2-1,4.6-1.7c4.4-1.5,9.6-1.3,14.4-1
	c1.3,0,0.4,1.5,0.8,2.1c0.4,0.8,1.7-0.8,1.9,0.4c0.4,1.5-1.7,0.8-1.9,1.5c-0.2,2.7-3.8,3.8-4.2,5.9c-0.4,2.1-0.8,4.8,1,6.6
	s2.3,4.5,1,6.8c-0.6,1.5-0.2,2.7-0.4,4c-0.4,2.7,1.7,5.5-0.4,8.3c-0.4,0.6-2.3,4,1.9,4c0.2,0.5,0.3,1,0.2,1.5
	c-0.7,2.3-1.2,4.7-1.5,7.2c-0.6,3.6-1.3,4,1.3,7.2c0.4,0.6,0.4,1.4,0.2,2.1c-1.7,1.5-0.6,4.2-2.5,5.5c0,0.1-0.1,0.2-0.2,0.2
	c-1.7,1.9,2.5,2.3,1.5,4c-1,1.5-1.3,2.9,0.8,4c0.4,0.2,0.7,0.6,0.6,1c-3.2,1.5,0.2,4.8-2.3,6.4c-0.2,0.2-0.2,0.5-0.2,0.8
	c3.6,0.6,1.3,3.4,2.3,5c0.4,0.6,0.3,1.4-0.3,1.9c-0.2,0.1-0.4,0.2-0.6,0.2c-0.7,0.3-1.1,1.1-0.8,1.9c0.8,3.1,1.1,6.5,0.6,9.8
	c-0.2,1,1,2.7,1.5,4.4c1.3,4.2,0.2,8.1-0.4,12.1c-0.2,2.6,0,5.1,0.8,7.7c0.2,1.5,1.3,2.7-1.3,3.4c-0.8,0.2-0.4,1.3-0.2,2.1
	c1,5.2,2.9,10.6,1.7,15.6c-0.8,3.6,1.5,7.9-2.1,11.2c-0.4,0.4-0.6,2.9,1,3.6c1.5,0.4,1.3,1.3,1.5,2.1c0.8,1.9,0,4.1-1.9,5
	c-1,0.6-1.9,1,0,1.5c0.7,0.1,1.1,0.6,1.1,1.3v0.2c0.2,2.1-2.1,4.2,0.6,6.2c0.2,0.2,0.4,1.7-0.6,1.7c-3.4,0.2-2.7,2.1-2.5,4
	c0.4,1.4,0,2.8-1,3.8c-0.8,1-0.8,3.2,0.8,4.8c1.8,1.8,2.2,4.5,1,6.8c-0.6,1-1,2.2-1,3.4c0,3.4-1.7,6.8-0.4,10.2
	c0.2,0.6-3.2,1.9-4,1.7c-2.3-1-5.2-0.2-5.7,1c-0.6,2.1-1.9,1.9-3.4,1.9c-3.8-0.1-7.7,0.1-11.4,0.6c-4,0.6-8.3-0.8-12.5-0.6
	c-2.5,0.2-5,0-7,1.9c-0.6,0.7-1.6,0.8-2.3,0.3c-0.2-0.1-0.3-0.3-0.4-0.5c-0.6-1-7.5-0.8-8.5,0c-2.9,2.3-3.6,2.1-8.3,0.6
	c-1-0.2-4.4-1-5.5,1.5c-0.3,1-1.2,1.5-2.2,1.3h-0.1c-2,0-3.9,0.2-5.9,0.6c-1.3,0.2-2.9,0.6-4.2-1.3c-1.3-1.9-4.4,0-6.6,0.4
	c-2.5,0.4-3.6,0.6-3.6-2.1c0-1.5-1.5-1.5-2.7-1.5h-38.1c-1,0-2.5-0.4-2.3,1.3c0.2,2.3-1.5,2.1-3.2,1.9c-16.7-0.8-33.5-0.6-50.2-1.9
	c-1.5,0-3.6-1-4.6,1.5c-0.4,0.8-3.4,1-4.6-0.2c-2.3-2.3-4.4-1.9-7-0.6c-0.4,0.3-0.8,0.4-1.3,0.2c-4.2-2.1-4.2-2.1-9.1,0.2
	c-1.5,0.6-3.8,1-5-0.6c-0.6-1.1-2.1-1.6-3.2-0.9l-0.1,0.1c-2.9,2.3-6.2,0.4-9.1,1c-2.1,0.4-1-1.9-2.5-2.1c-1.9-0.2-2.9,1.3-4.6,1.3
	c-6.6,0.2-13.3,0.2-20-0.2c-1.5,0-3.4,0.2-4.6-1.5c-0.8-1.3-1.7,1-2.9,1c-4.4,0-8.9,0.4-13.1-0.2c-5.4-0.7-10.9-0.8-16.3-0.2
	c-2.3,0.2-5,1-7.7,1c-1.5,0-2.9,0.4-3.8-1.3c-0.4-0.8-1.9-0.8-1.9-0.2c0.2,3.2-2.5,1.5-3.4,1.5c-4-0.5-8.2-0.6-12.3-0.4
	c-0.8,0-1.7-0.2-2.3,0.6c-0.8,1-1.5,1.3-1.9-0.2c-0.4-0.2-0.8-0.3-1.3-0.2c-4.2,2.5-8.7,0.4-13.1,1c-0.6,0.3-1.4-0.1-1.6-0.7
	c0-0.1,0-0.1-0.1-0.2c-0.2-1.5-2.1-1.3-2.5-1c-3.2,2.1-6.6,0.8-10,1.3c-1.3,0.2-2.9-0.4-3.6,1.3c-0.2,0.3-0.5,0.4-0.8,0.4
	c-5-2.9-10.2,1-15.2-0.2c-0.6-0.2-1.2,0.1-1.4,0.7c0,0.1-0.1,0.2-0.1,0.3c-0.4,1.5-1.3,0.8-1.9,0.2c-1.5-1.9-1.7-1.9-2.5-0.2
	c-0.6,1.5-1.3,0.8-2.5,0.8c-6.6-0.6-13.3-1-19.5,0c-4.3,0.9-8.9,1.2-13.3,0.8c-5.2-0.6-10.6-1-15.4-0.2c-4.2,0.7-8.6,1-12.9,1
	c-2.1,0-4.4,0.4-6.6-0.4c-0.8-0.3-1.6-0.2-2.3,0.2c-3.2,3.2-7.2,1-10.8,1.5c-2.1,0.2-4.2-1.3-6.2,0.6c-0.5,0.4-1.2,0.4-1.6-0.1
	l-0.1-0.1c-0.8-1.3-1.7-1.5-2.5,0c-0.4,0.3-0.8,0.4-1.3,0.2c-4-1.7-8.3,0.8-12.3,0c-3.8-0.8-7.2-2.3-11.4-1.7
	c-9.3,1.5-18.3,2.7-27.3,2.7c-5.2,3.6-11.7,2.1-17.3,2.9c-5.9,0.8-12.1,0.6-18.3,1c-1.7,0-5.9-2.3-7.2-3.6c-1.7-1.7-4.4-1.7-6.6-2.1
	C14.7,221.7,14.1,220.7,13.4,220"/>
<path class="st1" d="M258,163.3c-0.2-1.6,1-3,2.6-3.2h1.6c1.6-0.2,3,1,3.2,2.6v21.4h-7.5L258,163.3L258,163.3z M271,163.5
	c0-2.3,1-3.4,2.9-3.4h0.6c1.4-0.1,2.7,0.5,3.4,1.7l8.5,11v-12.7h7v20.6c0,2.3-1,3.4-2.9,3.4h-0.6c-1.3,0.2-2.6-0.5-3.1-1.7
	l-8.7-11.2v12.7h-7C271.1,183.8,271,163.5,271,163.5z M297.2,163.5c0-2.1,1.3-3.2,3.4-3.2h15.2c2.3,0,3.4,1,3.4,2.9v0.2
	c0,2.1-1,3.2-3.4,3.2H312V184h-7.4v-17.3h-4C298.5,166.6,297.2,165.6,297.2,163.5 M323.2,180.4v-16.1c0-2.5,1.3-4,3.8-4h15.9v6.4
	h-12.3v2.3h9.1v5.9h-9.1v2.7h12.3v6.4h-16.1c-1.8,0.2-3.4-1-3.6-2.8L323.2,180.4 M359.7,181.2l-3.4-4.4H355v7.5h-7.5v-19.7
	c0-2.5,1.3-4,3.8-4h7.5c6.6,0,10,2.7,10,7.9c0.2,3.2-1.9,6.2-5,7l5.2,6.6c0.2,0.2-1,2.5-4.2,2.5
	C362.6,184.3,360.7,183.1,359.7,181.2 M354.8,171.5h3.2c2.1,0,3.4-1,3.4-2.7c0-1.9-1-2.7-3.4-2.7h-2.9v5.5L354.8,171.5L354.8,171.5z
	 M373.4,163.5c0-2.3,1-3.4,2.9-3.4h0.6c1.4-0.1,2.7,0.5,3.4,1.7l8.5,11v-12.7h7v20.6c0,2.3-1,3.4-2.9,3.4h-0.6
	c-1.3,0.2-2.6-0.5-3.2-1.7l-8.7-11.2v12.7h-7L373.4,163.5L373.4,163.5z M415.9,179.1h-7.7l-1.9,4.8h-7.5l8.5-22
	c0.4-1.3,1.3-2.1,4.6-2.1c3.4,0,4.2,0.8,4.6,2.1l8.9,22h-7.7L415.9,179.1z M409.5,173.9h5l-2.5-7L409.5,173.9z M427.1,163.5
	c0-2.1,1.3-3.2,3.4-3.2h15.2c2.3,0,3.4,1,3.4,2.9v0.2c0,2.1-1,3.2-3.4,3.2h-3.8V184h-7.5v-17.3h-4
	C428.2,166.6,427.1,165.6,427.1,163.5 M453.1,163.3c-0.2-1.6,1-3,2.6-3.2h1.6c1.6-0.2,3,1,3.2,2.6v21.4H453L453.1,163.3L453.1,163.3
	z M465.2,172.1c-0.2-6.7,5-12.3,11.7-12.5h0.7c7.5,0,12.5,5,12.5,12.5c0,6.9-5.6,12.5-12.5,12.5C470.8,184.7,465.2,179,465.2,172.1
	 M483,172.1c0-3.4-2.1-5.9-5.2-5.9s-5.2,2.3-5.2,5.9s2.1,5.9,5.2,5.9S483,175.8,483,172.1 M494.8,163.5c0-2.3,1-3.4,2.9-3.4h0.6
	c1.4-0.1,2.7,0.5,3.4,1.7l8.5,11v-12.7h7v20.6c0,2.3-1,3.4-2.9,3.4h-0.6c-1.3,0.2-2.6-0.5-3.2-1.7l-8.7-11.2v12.7h-7V163.5
	L494.8,163.5z M537.3,179.1h-7.7l-1.9,4.8h-7.5l8.5-22c0.4-1.3,1.3-2.1,4.6-2.1s4.2,0.8,4.6,2.1l9,22h-7.7L537.3,179.1L537.3,179.1z
	 M530.7,173.9h5l-2.5-7L530.7,173.9L530.7,173.9z M549.7,163.5c0-2.3,1-3.4,3.2-3.4h1c2.1,0,3.2,1,3.2,3.4v14.2h7.2
	c2.3,0,3.4,1,3.4,2.9v0.3c0,2.1-1,3.2-3.4,3.2h-14.6L549.7,163.5L549.7,163.5z M256.1,68.8c0-9.1,4.4-14,12.9-14h21.6
	c23.3,0,36,10.2,36,29.6c0,19.5-12.2,29-35.3,29h-9.8v22.9h-25.4C256.1,136.4,256.1,68.8,256.1,68.8z M281.1,95h9.3
	c7.7,0,11.7-3.8,11.7-10.6c0-6.8-4.2-10.6-12.1-10.6h-8.9V95L281.1,95z M333.6,66.1c0-8.1,3.6-11.7,10.6-11.7h3.6
	c7.2,0,11,3.8,11,11.7v48.5h24.8c7.9,0,11.7,3.6,11.7,10.4v0.4c0,7.2-3.8,11-11.7,11h-50.2V66.1H333.6L333.6,66.1z M453.6,119.6
	h-26.5l-6.4,16.9h-25.2l29.2-75.4c1.3-4,4.6-7,16.1-7s14.4,2.9,15.7,7l30.5,75.4h-26.7L453.6,119.6L453.6,119.6z M431.5,101.4H449
	l-8.9-23.7L431.5,101.4z M490,66.1c0-7.9,3.8-11.7,10.4-11.7h2.3c5.9,0,7.9,1.7,11.4,5.9l29.2,38.1V54.7H567v70.6
	c0,7.9-3.8,11.7-10.2,11.7h-2.1c-6.2,0-7.9-1.5-11.2-5.5l-29.8-38.7v43.7H490L490,66.1L490,66.1z M55.3,63.5
	c-1.7,1-9.6,9.3-10.4,10.6c-0.4,0.6-1.9,3.2-2.1,3.4c-0.2,0.2-1.3,1.7-1.5,1.9s-1,2.7-1.3,2.9c-0.4,0.6-1.7,1.7-1.9,2.1
	c0.3,1.3-0.2,2.6-1.3,3.4c-1.3,1-2.1,5.2-2.3,5.5c-0.2,0.8-1.9,2.7-1.7,4.4c0,0.8-0.3,1.6-0.8,2.1c-0.2,0.6-0.2,2.7-1.5,3.2
	c-1,0.4-0.6,2.1-0.4,2.7c0.5,1,0.6,2.1,0.2,3.2c-0.2,0.7-0.1,1.5,0.2,2.2c0.8,1.3,0,3.4-0.2,4c-0.2,3.8,2.3,4.8,1.7,7.2
	c-0.4,1.5,0.4,2.5,0.2,4c0,0.8,0.3,1.6,0.8,2.1c0.4,0.8,0.7,1.6,0.8,2.5c-0.4,2.1,2.7,5,2.5,8.1c-0.2,2.5,2.9,3.8,3.2,4
	c1.5,1.9,1.5,4,3.2,5c0.7,0.6,1.4,1.1,2.1,1.5c1,0.6,0,1.3,0.2,1.5c1,1.8,2.3,3.4,4,4.6c6.6,7.7,22.3,17.3,24,17.5
	c1.5,0,2.9,0.6,4,1.5c2.2,1.3,4.5,2.3,7,3.2c0.8,0.4,1.7,0.2,2.5,0.6c0.8,0.2,5.7,2.1,6.4,2.3c1.8,0.8,3.7,1.5,5.7,1.9
	c1.5,0.4,3.2,1.3,4.8,1.7c1.9,0.4,3.4-1.3,4.8-0.2c1.6,0.9,3.3,1.5,5,1.9c7.9,1.7,19.1,2.1,26.9,1.7c1.7,0.4,3.5,0.4,5.2,0
	c2.7-0.2,5.9-1,8.7-1.3c4-1,8.7-2.1,12.5-4c1.3-0.2,2.7-1.7,3.6-1.9c1.7-0.8,3.3-1.8,4.6-3.2c0.2-0.2,2.7-1.7,2.7-1.7
	c0.6-0.3,1.1-0.7,1.7-1c0.6-0.4,7-5.5,7-5.5c0.4-1,1.7-1.5,2.7-2.1c0.1-0.2,0.2-0.3,0.4-0.4c0.4-0.4,0.8-0.6,1.3-0.8
	c0.2-0.2,0.4-0.2,0.6-0.4l0.2-0.2c0-0.2,0.1-0.3,0.2-0.4c0-0.1,0.1-0.2,0.2-0.2c0.2,0,0.2,0.2,0.2,0l0.2-0.2c0-0.1,0.1-0.2,0.2-0.2
	c0.2-0.2,0.2-0.4,0-0.4c-0.2-0.1-0.3-0.2-0.4-0.4c0.1-0.3,0.2-0.5,0.4-0.6s0.4-0.1,0.6,0c0.1,0.2,0.2,0.3,0.4,0.4
	c0.2,0,0.4-0.2,0.4-0.4s0.1-0.3,0.2-0.4c0.2-0.2-0.2-0.2-0.4-0.2s0-0.2,0.2-0.2c0-0.2-0.2-0.4-0.4-0.4s-0.4,0.2-0.6,0.2l-0.2,0.2
	h-0.2v0.2c0,0.2-0.2,0-0.2,0h-0.8c-0.1,0-0.2,0.1-0.2,0.2c-0.2,0-0.2,0.2-0.4,0.2c-0.4,0-0.9,0.2-1.3,0.4c-0.2,0.2-0.5,0.4-0.8,0.4
	H188l0.1,0.1l-0.2,0.2c0,0.3-0.3,0.6-0.6,0.6c-0.5,0.2-1.1,0-1.5-0.4c-1,0-1-0.6-1.3-1.3c0-0.2-0.1-0.4-0.3-0.4H184
	c-0.2,0.1-0.3,0.2-0.4,0.4c-0.4,0.6-1.1,1.1-1.9,1.3c-0.4,0.1-0.7,0.1-1,0.2c-0.3-0.1-0.6-0.1-0.8,0c-0.2,0-0.2,0.2-0.2,0.4
	s-0.2,0.2-0.2,0.4c-0.2,0.2-0.4,0.4-0.6,0.2c-0.2,0-0.6-0.2-0.2-0.6c0.2-0.2,0.6-0.2,0.4-0.6c0-0.2-0.2,0-0.4,0
	c-0.2,0.2-0.4,0.2-0.6,0.2c-0.4,0.1-0.8-0.2-0.8-0.6v-0.2l0.2-0.2l0.2-0.2v0c0.1-0.2,0.2-0.3,0.4-0.4c0.2-0.3,0.4-0.5,0.6-0.6
	c0.3,0.1,0.6,0,0.8-0.2c0.2-0.4,0-0.6,0.2-1s0.6-0.4,0.2-0.8c-0.4-0.4-0.8,0-1.3,0.2c-0.2,0.2-0.4,0.4-0.6,0.4c-0.4,0-0.2-0.2,0-0.4
	l0.6-0.6c0.1-0.4,0.5-0.6,0.8-0.6c0.2,0,0.5-0.1,0.6-0.2c0.2-0.4,0-0.6-0.4-0.6s-0.9,0.2-1.3,0.4c-0.3,0.2-0.6,0.4-0.8,0.6
	c-0.2,0.3-0.6,0.4-0.8,0.2h-0.2c-0.3,0.1-0.5,0.2-0.6,0.4c-0.4,0.2-0.8,0.4-1-0.2c0.1-0.2,0.2-0.3,0.4-0.4c0,0,1-0.2,1.3-0.2
	c0.4,0,0.7-0.2,1-0.4c0-0.1,0.1-0.2,0.2-0.2c0.4-0.4-0.2-1.3-0.6-0.8c-0.4,0.3-0.8,0.6-1,1c-0.2,0.2-0.5,0.4-0.8,0.4
	c-0.2,0-0.8-0.2-0.6-0.6c0.2-0.2,0.4-0.3,0.6-0.4l0.6-0.6l1.3-0.6c0.2,0,0.8,0,0.8-0.4c0-0.2-0.2-0.2-0.4-0.2H177
	c-0.4,0-0.7,0-1-0.2c-0.2-0.2,0-0.6-0.4-0.6c-0.6,0-0.2,0.2-0.4,0.6c-0.4,0.3-0.8,0.4-1.3,0.2c-0.2-0.4,0.4-0.8,0.6-0.8
	c0.3-0.2,0.7-0.3,1-0.2h0.4c0.2,0,0.2-0.4,0.4-0.4s0.2-0.4,0-0.4h-0.8c-0.3,0.2-0.5,0.4-0.6,0.6c-0.2,0.2-0.5,0.4-0.8,0.4
	c-0.4,0-0.4-0.4-0.8-0.4c-0.4-0.2-0.4,0.4-0.4,0.6c-0.1,0.3-0.5,0.5-0.8,0.4l-0.6,0.6c-0.6,0.4-1.4,0.6-2.1,0.6
	c-0.3,0-0.5,0.2-0.6,0.4c-0.6,0.4-1.3-0.2-1.9,0l-0.4,0.2c-0.2,0-0.2-0.2-0.4-0.2c-0.5,0-1-0.1-1.5-0.2c-0.3,0.1-0.5,0.2-0.6,0.4
	c-0.3,0.4-0.8,0.6-1.3,0.6c-0.3-0.1-0.5-0.2-0.6-0.4c-0.1-0.2-0.4-0.2-0.5-0.1l-0.1,0.1c-0.1,0.2-0.2,0.5-0.4,0.6
	c-0.2,0-0.4,0-0.4-0.2s0.2-0.2,0.2-0.4s0-0.2-0.2-0.2l-0.4,0.2h-1c-0.2,0-0.3-0.1-0.4-0.2c-0.2,0-0.2-0.2-0.4-0.2
	c-0.2,0.1-0.3,0.2-0.4,0.4h-0.6c-0.2-0.1-0.4-0.1-0.6,0l-0.4,0.4h-1c-0.8,0-1.7,0.1-2.5,0.2c-1.3,0.2-2.3,0.6-3.6,0.8
	c-1.3,0.2-6.6,0.4-7.5,0.4s-4.2-0.2-4.4,0.2h-1c-0.2-0.2-0.4-0.3-0.6-0.4c-0.6-0.2-0.2,0.4-1-0.2c-0.7-0.3-1.5-0.4-2.3-0.2
	c-1.5,0-4.2-0.4-4.6-0.4c-0.9-0.2-1.8-0.6-2.5-1.3c-0.4-0.6-1.3-0.6-1.3-1.5c-0.1-1.8,0.1-3.7,0.6-5.5c0.2-0.8,0.4-3.8,0.6-4
	s0-0.2,0.2-0.4c1-1,0.6-1,0.8-2.1c0.4-1.7,1-4.4,2.9-4.8c0.9-0.3,1.9-0.6,2.7-1c1.2,0,2.4-0.3,3.6-0.6c0.3-0.2,0.5-0.3,0.8-0.4
	c1.3-0.2,2.3,0.2,3.6,0c0.9-0.1,1.8-0.2,2.7-0.2c0.4,0,0-0.4,0.2-0.4c0.6-0.2,0.6,0.4,1.3,0.6c1,0.2,2,0.2,2.9,0.2
	c0.2,0,0-0.2,0.2-0.4c0.4-0.4,0.6,0.4,0.8,0.4c0.4,0.4,9.3,1.5,10,1.5c1.2,0.3,2.5,0.1,3.6-0.4c1-0.4,1.9-0.9,2.7-1.5
	c0.1-0.2,0.1-0.4,0-0.6c0.5-0.5,0.7-1.2,0.6-1.9c0-0.3,0-0.6,0.2-0.8c0.1-0.3,0.1-0.7,0-1c-0.1-0.4,0.1-0.8,0.4-1
	c0.4-0.4,0.5-1,0.2-1.5c-0.3-0.4-0.6-0.8-1-1s0,0,0-0.4c-0.2-0.2-0.4-0.2-0.6-0.2c-0.6,0-1.1-0.1-1.7-0.2c-1.1-0.4-2.4-0.6-3.6-0.6
	c-1.9,0-3.8-0.8-5.9-0.6c-0.4,0-1,0.2-1.3,0.2c-0.4,0,0-0.6-1.3-0.6c-1.1,0-2.1-0.2-3.2-0.4c-0.8-0.2-3.8,0-4-0.2
	c-0.2,0-0.5-0.1-0.6-0.2c-0.4-0.4-0.9-0.7-1.5-0.8c-0.2,0-0.3-0.1-0.4-0.2c-0.3,0.1-0.7,0.1-1,0c-0.4-0.2-1.3-0.4-1.3-1
	c-0.2-1,1.7-2.3,2.5-2.7c0.6-0.4,1.3-1.3,2.1-1c0.4-0.1,0.7-0.3,1-0.6c1.3-1.8,2.7-3.5,4.2-5c0.8-0.6,0.2-1.7,1.5-2.5
	c0.4-0.5,0.8-1.1,1-1.7c0.6-1,0.4-2.7,1.5-3.6l0.3-0.9c0.1-0.3,0-0.6-0.2-0.8c-0.1-0.3-0.1-0.7,0-1v-3.2c-0.1-0.5,0.2-1,0.7-1h0.3
	c0.4,0,0-1,0-1.5c-0.3-1.2-1.3-2.2-2.5-2.3c-1.7-0.2-2.9,1-4,2.3c-0.6,0.8-2.7,3.6-2.9,3.8c-0.6,0.4,0,0.6-0.6,1.5
	c-0.2,0.2-0.6,0.2-0.8,0.4c-0.3,0.4-0.5,0.9-0.6,1.4c0.1,0.3,0,0.6-0.2,0.8c-0.8,0.6-0.8-0.2-1.3,0c-1.5,1-1.5,1.5-1.7,1.5
	c-0.5,0.6-1.1,1-1.8,1.2c-0.7,0-1.4,0.3-1.9,0.8c-0.2,0.4-1.3,0.4-1.3-0.2c0.1-0.9,0.3-1.7,0.6-2.5c0.2-0.8-1.3-1.5-0.4-2.3
	c0.4-0.4,0.4-1,0-1.4c-0.2-0.5-0.4-1-0.4-1.5c-0.4-0.6,0.2-0.6-0.4-1.5c-0.2-0.4-0.6,0.2-0.8-0.8c-0.2-0.6-0.6-1-1.1-1.2
	c-0.4-0.4-1-0.8-1.5-1.3c-1.4-1-3-1.7-4.6-2.1c-1.7-0.4-3.4-0.5-5-0.2c-0.4,0-1,0-1-0.4c0-0.1-0.1-0.2-0.2-0.2
	c-0.5-0.1-1-0.1-1.5,0.2c-1,0.4,0,0.8-0.6,1c-0.8,0.2-2.7,0.8-3.4,1c-0.4,0.1-0.8,0.2-1.3,0.2c-0.6,0-0.6,0.4-1.3,0.8
	c-1.3,0.6-1,3.8-1,4.6c0,0.2,0.1,0.4,0.3,0.4h0.2c0.2,0,0.6,0.2,0.6,1c0,0.6-0.1,1.3-0.2,1.9c-0.2,0.8,0.2,0.4,0.2,1
	s0.8,2.7,0.6,3.2c0,0.2,0.2,0.4,0.2,0.6c0,0.1,0.1,0.2,0.2,0.2c0.4,0,0.4,0.8,0.6,1.5c0.2,0.6,0.4,1.1,0.8,1.5
	c0.2,0.2,0.2,0.4,0.4,0.6s0.4,0.4,0.2,0.6s-0.8,0.8-1,0.6c-0.4-0.2-1.5-0.2-1.9-0.4c-0.8-0.2-1.7,0.2-1.9,0c-0.3-0.2-0.7-0.3-1-0.4
	c-0.4-0.2-0.4,0.2-0.6,0.2c-0.3-0.2-0.5-0.4-0.6-0.6c-0.6-0.5-1.3-0.8-2.1-0.8c-1-0.3-1.9-0.7-2.7-1.3c-0.8-0.6-4-1.7-4-2.1
	c-0.2-0.4-1-0.2-1.3-0.4c0-0.4-1-0.4-1-0.6c0-0.4-0.6-0.2-0.8-0.4c-0.3-0.3-0.7-0.4-1-0.2c-0.2,0.2-0.6,0.2-0.8,0
	c-0.2-0.2-0.4-0.3-0.6-0.4c-0.5-0.2-1.1,0-1.5,0.4c-0.6,0.4-1.1,0.9-1.5,1.5c-0.2,0.4-0.4,0.6-0.6,1c-0.2,0.3-0.4,0.6-0.6,0.8
	c-0.2,0.3-0.2,0.7,0.1,0.9c0.1,0.1,0.2,0.1,0.3,0.1c0.4,0.2,0,0.6,0.4,0.8c0.6,0.2,0.8,1.5,1.5,2.1c0.7,0.8,1.2,1.7,1.5,2.7
	c0.4,0.8,1.7,0.2,2.1,1c0.6,0.9,1.4,1.7,2.3,2.3c1.1,0.8,2.3,1.3,3.6,1.7c1.6,0.1,3,0.8,4.2,1.9c1,0.2,1.9,0.9,2.3,1.9
	c0.4,1.4,0.7,2.9,0.8,4.4c0.4,2.7,1.5,2.3,1,3.2c-0.6,1.3,0.4,2.5,0.4,5.7c-0.1,1-0.4,1.9-0.8,2.7c-0.6,1.7,0.4,4,0.2,4.6
	c-0.4,1-0.6,4.8-1.5,5.7c-0.4,0.3-1,0.3-1.5,0c-0.8-0.4-3.4,0.2-4-0.2c-1-1-2.5-0.8-3.2-1s-1.5-0.4-2.1-0.8c-1-0.6-5.7-2.1-7.5-3.2
	c-4.2-2.1-10-4.6-10.4-7c-0.2-0.8-6.6-5-7.5-6.4c-0.6-0.8-1.7-1.9-1.9-2.3c-0.2-0.4-0.4-1.7-0.6-2.1c-0.8-1-1.9-1.3-2.3-3.4
	c-0.2-0.8-0.6-0.4-1.7-2.5c-2.3-5.7-1.9-12.5-1.9-14.8c0-2.1,1.9-6.8,2.5-8.5c0.4-1,1.5-1.7,1.9-3.4c0-0.6,2.7-2.3,3.8-4
	c1.1-1.5,2.5-2.7,4-3.8c0.8-0.4,10.6-7.9,11.4-8.7c0.7-1.1,2-1.9,3.4-1.9c0.7-0.1,1.3-0.5,1.7-1c0.2-1,10.4-3.6,11.9-5.2
	c0.4-0.6,3.6-1.5,5-1.7c0.4,0,0.4,0.4,1.3-0.4c0.8-0.6,2.3,0.4,3.4-0.4c1.3-1.3,1.5-1.5,3.8-1.5s2.1-1.3,3.8-1.3
	c1.3,0,2.5-0.6,3.2-1.7c0.4-0.8,4.8-1,5.7-1.7c2.1-1.7,3.6,0.2,6.4-0.4c0.4,0,1.5,0.2,2.1,0.2s1.7-0.8,1.9-0.2
	c0.2,0.4,4.2,0.2,5.2,0.2c0.3-0.1,0.5-0.2,0.8-0.2c-0.2,0.4,2.5,0.2,2.9,0.6c0.9,0.8,2,1.1,3.2,0.8c1.6-0.1,3.3,0.1,4.8,0.6
	c0.8,0.2-0.6,0.6,2.3,0.8c1.9,0,8.1,3.8,9.3,4c1.5,0,1.9,1.7,3.6,2.3c2.9,1,6.4,3.6,13.5,9.1c0.4,0.2,0.6,1.5,1,1.5
	c1.9,0,3.6,3.4,4.4,4.4c0.2,0.2,1.5-0.4,1.3,1.7c0,0.4,0.8-0.2,1,1.3c0,1.7,2.9,2.5,3.8,6.2c0.1,0.4,0.3,0.7,0.6,1
	c1.2,3,2.1,6.3,2.5,9.6c0.2,2.5,0.2,5.1-0.2,7.7c-0.7,2.6-1.5,5.1-2.5,7.7c-0.6,1.5-2.1,3.6-2.1,4.2c0,0.4-0.4,1-0.4,1.7
	c0.1,0.4,0,0.7-0.2,1c-0.5,0.2-1,0.5-1.3,1c0,0.4-0.8,0.4-0.8,0.8c0,0.6-1,0.4-1,1c0,0.4-0.8,0.6-0.6,1.3c-0.2,0.2-0.4,0.3-0.6,0.4
	c-0.5,0.4-1,1-1.3,1.7c-0.3,0.2-0.5,0.5-0.6,0.8c-0.2,0.4-0.5,0.8-0.8,1c-0.2,0.4-0.6,0.4-0.6,0.6c-0.2,0.3-0.3,0.7-0.2,1
	c0,0.4-0.6,1.5,0.2,1.5c0.3-0.2,0.5-0.4,0.6-0.6c0.3-0.3,0.6-0.6,1-0.6c0.5-0.2,1-0.5,1.5-0.8c0.2-0.4,0.5-0.7,0.8-0.8h0.5
	c0.1,0,0.2-0.1,0.2-0.2c0.2-0.2,0.4-0.6,0.6-0.8c0.2-0.2,0.4,0,0.6-0.2c0-0.2,0.1-0.3,0.2-0.4c0.2,0,0.4,0,0.4-0.2
	c0.2-0.1,0.3-0.2,0.4-0.4c0.2-0.3,0.5-0.4,0.8-0.2c0.4,0.2-1,1.5-1,1.7c-0.4,0.4-0.4,0.8-0.8,1.3l-0.8,0.8c-0.2,0-0.2,0.2-0.4,0.2
	c0,0.2-0.2,0.2-0.2,0.4l-0.6,0.6c-0.2,0.2-0.2,0.4-0.4,0.6c-0.3,0.3-0.4,0.7-0.2,1c0,0.2,0.2,0.4,0.4,0.2s0.4-0.4,0.4-0.6
	c0.2-0.2,0.2-0.4,0.4-0.6s0.4-0.2,0.6-0.4c0.2-0.1,0.3-0.2,0.4-0.4c0.3-0.5,0.6-0.9,1-1.3l0.6-0.6c0.2,0,0.4,0,0.4-0.2
	s0-0.4,0.2-0.4s0.2,0.2,0.2,0.4s0,0.2,0.2,0.2s0.4-0.2,0.4-0.4c0.1-0.3,0.2-0.5,0.4-0.6c0.2-0.2,0.4-0.2,0.6-0.4l0.8-0.8l0.6-0.6
	c0.2-0.3,0.4-0.5,0.6-0.6h0.4c0.2,0,0.2,0,0.2-0.2l0.2-0.2c0.2,0,0.2,0.4,0.2,0.6v0.4h0.4c0.2,0,0.4,0,0.2,0.2
	c0,0.2-0.2,0.2-0.2,0.4l-0.8,0.8l-0.4,0.4c-0.4,0.4-0.6,0.8-1,1.3c-0.2,0.4-0.6,0.6-0.8,1c-0.3,0.4-0.6,0.8-0.8,1.3
	c-0.2,0.4-0.5,0.7-0.8,0.8c-0.2,0.2-0.2,0.4-0.2,0.6s-0.2,0.4-0.4,0.4c-0.4,0.4-0.6,0.8-0.8,1.3c0,0.2,0,0.6,0.2,0.4
	c0.1-0.2,0.2-0.3,0.4-0.4c0.2-0.2,0.4-0.2,0.6-0.2c0.3,0,0.6-0.3,0.6-0.6c0-0.2,0-0.6,0.2-0.6c0.2-0.2,0.4,0,0.6-0.2
	c0.2,0,0.4-0.2,0.6-0.2c0.2,0,0.5-0.1,0.6-0.2v-0.6c0-0.2-0.2-0.2,0-0.2l0.2-0.2c0-0.2-0.1-0.3-0.2-0.4c-0.2-0.1-0.3-0.2-0.4-0.4
	c0-0.2,0.1-0.3,0.2-0.4s0.2-0.3,0.2-0.4v-0.2c0-0.1,0.1-0.2,0.2-0.2l0.2-0.2c0.2,0,0.4,0.2,0.6,0.2h1.3c0.2,0,0.4,0,0.4-0.2v-0.2
	c0-0.2-0.2-0.2-0.2-0.4s0-0.4,0.2-0.4c0.1-0.2,0.2-0.2,0.4-0.2c0.4,0,0.8,0.6,1.3,0.4c0.2,0,0.2-0.2,0.2-0.4l-0.2-0.2
	c0-0.1-0.1-0.2-0.2-0.2c-0.1-0.3,0-0.6,0.2-0.8l0.6-0.6c0.2,0,0.2-0.2,0.4-0.2s0.2,0.2,0.2,0.4s0,0.4-0.2,0.4
	c-0.3,0.2-0.4,0.6-0.2,0.8c0.2,0.2,0.5,0.3,0.8,0.2h0.8c0.2,0,0.2,0.4,0.2,0.4c-0.1,0.3-0.2,0.5-0.4,0.6l-0.6,0.6
	c-0.2,0-0.3,0.1-0.4,0.2c-0.3,0.1-0.5,0.2-0.6,0.4c0,0.2,0,0.4,0.2,0.4c0.3,0,0.5,0.2,0.6,0.4c0,0.5-0.4,0.9-0.8,1
	c-0.3,0.1-0.5,0.2-0.6,0.4l-0.2,0.2l0,0.4c-0.2,0-0.3-0.1-0.4-0.2h-0.2l-0.2,0.2c-0.1,0-0.2,0.1-0.2,0.2v0.8
	c-0.1,0.1-0.2,0.3-0.2,0.4c0,0.2,0.4,0,0.4,0c0.2,0,0.2-0.2,0.2-0.4c0.2-0.2,0.4,0.2,0.4,0.4s-0.2,0.2-0.2,0.4s0.1,0.3,0.2,0.4
	c0.3,0,0.6-0.2,0.8-0.4c-0.1-0.2-0.1-0.4,0-0.6c0.2,0,0.3,0.1,0.4,0.2c0.1,0.1,0.3,0.2,0.4,0.2c0.2-0.1,0.3-0.2,0.4-0.4
	c0.2-0.2,0.4-0.4,0.6-0.4c0.4-0.1,0.8-0.3,1-0.6l0.6-1.3c0-0.2,0.2-0.4,0.2-0.6c0.4-0.4,0.8-0.2,1.3-0.6c0.2-0.1,0.2-0.2,0.2-0.4
	s0.2-0.2,0.2-0.4c0.1-0.1,0.1-0.3,0-0.4c0-0.2,0.1-0.3,0.2-0.4c0.2-0.2,0.4-0.2,0.4,0c0.3,0.1,0.6,0.1,0.8,0c0.1,0.3,0,0.6-0.2,0.8
	c-0.6,0.4-0.4,1.3-1,1.9c-0.2,0.2-0.6,0.2-0.8,0.4s-0.2,0.8-0.4,1s-0.4-0.2-0.4,0c-0.1,0.1-0.2,0.3-0.2,0.4v0.2
	c0,0.2-0.4,0.4-0.2,0.6h0.4c0.2,0,0.3-0.1,0.4-0.2l0.2-0.2l0.2,0.2c0,0,0.2,0.2,0.2,0v-0.2l0.2-0.2l0.2,0.2c0,0.2,0.4,0,0.4,0
	l0.2-0.2c0.2-0.2,0.4-0.4,0.4-0.6l0.6-0.6c0.2,0,0.4,0,0.4-0.2c0.2,0,0.4-0.2,0.4-0.4c0.3-0.1,0.6-0.4,0.8-0.6s0.4-0.4,0.4,0v0.4
	c0,0.4-0.6,0.4-0.6,0.8v0.4c0,0.4-0.4,0.2-0.6,0.4c-0.4,0.2-0.7,0.6-0.8,1v0.4c0.1,0.1,0.2,0.3,0.2,0.4h-0.4c-0.4,0-0.2,0.4-0.2,0.6
	s-0.4-0.2-0.4,0.2c0,0.2-0.1,0.5-0.2,0.6c-0.1,0.2-0.4,0.4-0.6,0.4h-0.2c-0.1,0-0.2,0.1-0.2,0.2v0.4c0,0.1-0.1,0.2-0.2,0.2l-0.4,0.4
	c0,0.1,0.1,0.2,0.2,0.2h0.6c0.1,0,0.2-0.1,0.2-0.2c0.2,0,0.2-0.2,0.4-0.2c0.4-0.4,0.8-0.6,1.3-1c0.3-0.5,0.6-0.9,1-1.3
	c0.2-0.2,0.4-0.4,0.6-0.4c0.4-0.2,0.4,0.4,0.2,0.6c0,0.2-0.1,0.3-0.2,0.4c-0.1,0-0.2,0.1-0.2,0.2c-0.1,0.1-0.2,0.3-0.2,0.4
	c-0.1,0.3-0.4,0.6-0.6,0.8c-0.2,0.2-0.4,0.2-0.6,0.4c-0.2,0.2-0.2,0.4-0.4,0.6c0,0.2-0.2,0.4,0.2,0.4c0.3,0,0.5-0.2,0.6-0.4
	c0.2-0.2,0.6-0.2,0.8-0.4s0.2-0.4,0.4-0.6c0-0.2,0.2-0.4,0.4-0.4c0.1-0.2,0.2-0.3,0.4-0.4c0-0.2,0-0.2,0.2-0.2s0.6-0.2,0.6,0.2
	c-0.1,0.3-0.2,0.5-0.4,0.6c-0.4,0.4-0.8,0.9-1,1.5c-0.1,0.6-0.3,1.2-0.6,1.7c-0.2,0.2-0.4,0.6-0.6,0.8c-0.2,0.2-0.4,0.2-0.6,0.4
	l-0.6,0.6c-0.2,0.4-0.6,0.7-1,0.8l-0.4,0.4l-0.6,0.6c-0.2,0.2-0.2,0.4-0.4,0.6s-0.4,0.4-0.4,0.6h-0.4l-0.2,0.2
	c0,0.2-0.2,0.2-0.2,0.4c-0.1,0.1-0.2,0.3-0.2,0.4c0.2,0.4,1.3-0.6,1.3-0.6l1-1l2.7-2.7c0.8-0.8,1.5-1.6,2.1-2.5
	c0.2-0.4,0.6-0.8,0.8-1.3c0.1-0.4,0.3-0.7,0.6-1c0.2-0.2,0.6,0,0.8-0.2c1-0.4,1.7-1.9,2.3-2.7c1.8-2.6,3.4-5.4,4.6-8.5
	c0.2-0.4,0.2-1.5,1.3-1.7c0.6-0.2,0.4-1.7,0.6-2.1c0.1-0.8,0.3-1.6,0.8-2.3c0.7-1.1,1-2.3,1-3.6c0.2-1.3,2.7-10,2.1-16.7
	c-0.2-1.3-0.2-9.3-2.3-11.9c-1.5-1.5,0.2-3.6-0.6-5.9c-0.2-0.6,0.6-0.8,0.8-1.5c0.6-1.5-0.2-3.2-1.7-3.8c-0.8-0.2-2.1-0.2-2.5-1.3
	c-0.2-0.4,0.6-2.3-0.4-4.2c-0.4-0.8-1.3-3.2-7.7-8.1c-1.9-1.8-3.7-3.6-5.4-5.6c-1.4-1.7-2.9-3.2-4.6-4.6c-0.6-0.4-1.5-2.3-4.2-3.4
	c-0.8-0.4-7-5.2-7.7-5.5c-2.5-0.8-7-4-7.9-4.2c-4.6-1-6.2-3.6-7.9-3.8c-1.3-0.2-4.8-0.4-6.8-2.5c-1-1.1-2.7-1.4-4-0.6
	c-0.8,0.4-3.8-2.1-8.1-1.5c-0.8,0.2-1.7-1.5-4.8-1c-2.9,0.4-5-1.7-6.2-1.9c-1-0.4-7.5-2.1-10.4-1.9h-1.7c-5.8-0.8-11.8-0.8-17.5,0
	c-1.5,0.4-19.5,5-21.2,5.9c-1.5,0.8-5.2,2.1-6.2,2.5c-1.9,0.8-9.6,3.4-10,4.2c-0.2,0.4-1.3,0.4-1.7,0.8c-1.3,1.4-2.9,2.5-4.6,3.2
	c-1.5,0.6-9.1,6.2-10.6,7.2C60.5,59.9,55.9,63.1,55.3,63.5 M228.3,85.7c0,0.6-0.2,1.2-0.6,1.7h-0.4c-0.3-0.1-0.5-0.2-0.6-0.4
	c-0.1-0.1-0.2-0.3-0.2-0.4c-0.2-0.1-0.2-0.2-0.2-0.4c0-0.2-0.1-0.3-0.2-0.4c0-0.2,0.1-0.3,0.2-0.4c0-0.2,0.2-0.2,0.2-0.4
	c0.1-0.1,0.3-0.2,0.4-0.2C227.5,84.5,228.2,85,228.3,85.7 M183.1,141.2c-0.1,0.4-0.3,0.7-0.6,0.8c-0.2,0.2-0.2,0.8-0.6,0.4
	c0.2-0.5,0.4-0.9,0.8-1.3C182.9,141.2,183.1,141,183.1,141.2 M184.9,142.1c0,0.2-0.2,0.2-0.2,0.4c-0.3,0.2-0.5,0.5-0.6,0.8l-0.2,0.2
	c-0.4,0.6-0.9,1.1-1.5,1.5c-0.2,0.2-0.6,0.4-0.8,0.6c-0.2,0-0.6,0.6-0.8,0.4c-0.1-0.2-0.1-0.4,0-0.6s0.2-0.3,0.4-0.4
	c0.2-0.2,0.2-0.4,0.2-0.6c0.1-0.3,0.2-0.5,0.4-0.6c0.2-0.2,0.5-0.2,0.8-0.2c0.4,0,0.4-0.2,0.6-0.6c0-0.1,0.1-0.2,0.2-0.2
	c0-0.2,0-0.2,0.2-0.2s0.2-0.2,0.4-0.2c0.2-0.2,0.4-0.4,0.6-0.4C184.8,141.8,184.9,141.9,184.9,142.1 M205.4,144.4v0.4
	c0,0.2-0.2,0.2-0.4,0.2s-0.4,0.2-0.6,0.2c-0.2,0-0.4,0.2-0.6,0.2c0,0-0.6,0.2-0.4,0.2c0.2,0.2,0,0.2-0.2,0.4c-0.2,0.1-0.4,0.1-0.6,0
	c0-0.3,0-0.6,0.2-0.8c0.2-0.2,0.4-0.2,0.6-0.4c0.2-0.2,0.4-0.2,0.6-0.4c0.2-0.2,0.4-0.4,0.6-0.4
	C204.9,144.1,205.2,144.2,205.4,144.4 M192.1,145c-0.2,0-0.4,0.2-0.4,0c-0.2-0.2,0.2-0.4,0.4-0.4S192.3,145,192.1,145 M192.5,145.4
	C192.5,145.6,192.3,145.6,192.5,145.4c-0.2,0.1-0.5,0.2-0.6,0.4c-0.2,0.2-0.4,0.2-0.6,0.4c0,0.2-0.2,0.4-0.4,0.4s-0.4,0-0.4-0.2
	s0.2-0.4,0.4-0.4s0.4,0,0.4-0.2c0.1-0.1,0.2-0.3,0.2-0.4L192.5,145.4 M179.2,148.3c-0.6,0.6-1.7,1.5-2.3,0.8c-0.6-0.6-0.2-1,0.2-1.7
	c0.8-0.6,2.3-1.5,2.7-1C180.2,146.9,179.4,147.8,179.2,148.3 M201.6,147.9c-0.2,0-0.2-0.4-0.2-0.4v-0.4c0-0.2,0.4,0,0.4,0
	c0.2,0,0.2,0,0.2,0.2s-0.2,0.2-0.2,0.4C201.8,147.5,201.8,147.7,201.6,147.9 M188.9,147.9c-0.3-0.2-0.4-0.6-0.2-0.8
	c0-0.2,0.2,0,0.2,0c0.2,0.2,0.2,0.4,0,0.4C189.2,147.7,189.2,147.9,188.9,147.9 M188.1,148.9c0-0.2,0.2-0.2,0.2-0.4l0.2-0.2
	c0-0.2-0.2-0.2-0.4-0.2s-0.3,0.1-0.4,0.2c-0.3,0.2-0.7,0.3-1,0.4h-0.6c-0.2,0-0.4,0-0.4,0.2v0.4c0.2,0.3,0.6,0.5,1,0.4
	c0.2,0,0.6-0.2,0.8-0.2L188.1,148.9 M206.1,148.9c0.2,0.2,0,0.2,0,0.2l-0.2,0.2c0,0.1-0.1,0.2-0.2,0.2c-0.2,0-0.2-0.2-0.2-0.4
	s0.2-0.2,0.4-0.2L206.1,148.9 M185.2,150.8c-0.2,0-0.4-0.2-0.4-0.4c0.2-0.2,0.6-0.2,0.6,0C185.6,150.6,185.4,150.8,185.2,150.8
	 M173.7,153.9c-0.2,0.1-0.4,0.1-0.6-0.1l-0.1-0.1c0-0.2,0.1-0.3,0.2-0.4c0.2-0.2,0.4-0.4,0.6-0.4c0.2-0.2,0.4-0.2,0.2,0.2
	c-0.1,0.2-0.2,0.3-0.4,0.4L173.7,153.9 M204,155.8c0.2,0,0,0.8-0.2,0.8C203.3,156.7,203.7,155.8,204,155.8 M201.6,156.5
	c0.1,0.6-0.1,1.2-0.6,1.5c-0.2,0.2-0.5,0.3-0.8,0.2c-0.3-0.1-0.5-0.2-0.6-0.4c-0.1-0.5,0.2-1,0.6-1.3c0.2-0.2,0.4-0.2,0.6-0.2
	C201.2,156.3,201.6,156.3,201.6,156.5 M200,159l-0.2,0.2c-0.1,0-0.2,0.1-0.2,0.2h-0.4v-0.2l0.2-0.2c0.1-0.1,0.3-0.1,0.4,0
	C199.8,158.8,199.8,159,200,159 M145.7,67.7c-0.1,0.5-0.3,1-0.6,1.5c-0.2,0.2-0.2,0.4-0.4,0.6s-0.4,0.2-0.6,0.4
	c-0.3,0.2-0.7,0.2-1,0c-0.4-0.4,0-0.8,0-1.3c-0.2-0.7,0-1.4,0.4-1.9c0.3-0.5,0.6-1,1-1.5c0.2-0.3,0.6-0.4,0.8-0.2
	C146,65.8,145.7,66.9,145.7,67.7 M136.9,70.9c0.1,0.5,0.3,1,0.6,1.5c0.4,0.4,0.5,1,0.2,1.5c-0.6,0-0.4,0.4-0.6,0.4
	c-0.4,0-1.9,0-2.3-1c-0.2-0.3-0.2-0.7-0.2-1c0.1-0.8,0.1-1.5,0-2.3c0-0.6,0.8-0.6,1.3-0.4C136.2,69.9,136.6,70.4,136.9,70.9
	 M154.8,71.9c-0.2,0.6-1.3,0.8-0.8,1.7c0.2,0.4-0.4,0.6-0.6,0.6c-0.8,0.2-1.7,1-2.5,0.6c-0.4-0.6-1.5-0.8-1.5-1.7
	c0.4-0.8,1.3-0.6,1.7-1.3C151.4,71.9,154.4,71.3,154.8,71.9z M133.6,77.9c0,0.4-0.1,0.7-0.2,1c-0.4,0.3-1,0.5-1.5,0.4
	c-0.6,0.1-1.1,0.1-1.7,0c-0.5-0.1-0.9-0.3-1.3-0.6c-0.2-0.4-0.2-0.8-0.2-1.3c0.2-0.4,0.6-0.6,1-0.6c0.5-0.1,1-0.1,1.5,0
	c0.7,0.2,1.4,0.3,2.1,0.4C133.6,77.3,133.6,77.7,133.6,77.9 M150,82.3c-1.4,2.6-3.9,4.5-6.8,5.2c-1.5,0.2-3.2,0.8-4.4-0.2
	c-0.4-0.4-0.8-0.6-1.3-0.8c-0.5,0-0.9-0.2-1.3-0.4c-0.2-0.4-0.3-0.8-0.2-1.3c0-0.2-0.2-0.6-0.2-0.8c-0.3-0.4-0.6-0.9-0.6-1.5
	c-0.1-0.7,0-1.5,0.4-2.1c0.2-0.2,0.8-1.5,0.2-1.5c-0.2,0-0.2-0.6,0.2-1c0.6-0.4,0.8-2.5,2.9-3.2c1.5-0.4,2.5-2.3,4.2-2.3
	c0.8-0.1,1.6-0.1,2.3,0.2c0.7,0.1,1.4,0.5,1.9,1c0.2,0.4,1.5,1,1.9,1.9c0.5,0.5,0.9,1.1,1.3,1.7c0,0.4,0.4,1.5,0.4,1.9
	C150.4,79.8,150.2,81.9,150,82.3 M146,78.1c-0.3-0.5-0.7-0.9-1.3-1c-0.5-0.2-1-0.2-1.5-0.2c-1-0.4-1.7,0.6-2.5,0.8
	c-0.4,0.1-0.7,0.3-0.8,0.6c-0.8,0.6-1.5,2.7-1.7,3.2c-0.2,0.8,0.2,1.6,1,1.8c0.1,0,0.2,0.1,0.3,0.1c0.7,0,1.4,0,2.1-0.2
	c1-0.4,1.9-1,2.5-1.8c0.5-0.6,0.9-1.2,1.3-1.9C146.2,78.6,146,78.2,146,78.1 M155.8,82.5c0.3,0,0.6,0.3,0.6,0.6
	c0,0.4-0.4,0.2-0.6,0.2c-0.4,0.2-0.2,0.8-0.8,0.8c-0.2,0-0.6,0.2-0.8,0.2c-0.7,0-1.4,0-2.1-0.2c-0.2-0.1-0.3-0.2-0.4-0.4
	c-0.4-0.1-0.6-0.5-0.6-0.8c0-0.2,0-0.2-0.2-0.2c-0.2-0.2,0-0.6,0.4-0.8h0.6c0.6-0.2,1.3-0.2,1.9,0c0.3,0,0.6,0,0.8,0.2
	C155,82.3,155.4,82.4,155.8,82.5 M133.2,86.5l0.2,0.2c0.2,0.4-0.2,0.6-0.4,0.8s-0.6,0.4-0.8,0.6c-0.3,0.2-0.7,0.4-1,0.4h-1.3
	c-0.5,0-0.8-0.4-0.8-0.8c0.2-1.5,2.1-1.7,3.2-2.3c0.5-0.1,1,0.2,1,0.7C133.2,86.3,133.2,86.4,133.2,86.5 M148.1,88.9
	c0.3,0.3,0.6,0.6,0.8,1s0.2,0.8,0.4,1.3c0.2,0.6-0.6,0.6-0.8,1c0,0.1-0.1,0.2-0.2,0.2c-0.3,0-0.6,0-0.8-0.2c-0.3,0-0.7-0.1-0.8-0.4
	c-0.2-0.2-0.3-0.5-0.2-0.8c0-0.4-0.1-0.7-0.2-1c0-0.2-0.2-0.2-0.2-0.4v-0.4c-0.2-0.4,0.2-0.4,0.2-0.8c0-0.2,0-0.4,0.2-0.4
	c0.3,0,0.6,0,0.8,0.2C147.4,89,147.9,89,148.1,88.9 M140.4,90.4c0.4,0.6,0.4,1.3,0,1.9c-0.2,0.4-0.6,1-0.8,1.5
	c-0.2,0.2-0.2,0.4-0.4,0.6c-0.4,0.1-0.8,0-1-0.4c0-0.2-0.1-0.3-0.2-0.4c0-1.5,1-3.6,1.7-3.6C139.8,89.8,140.2,90.2,140.4,90.4
	 M187.3,162.6c-0.4,0.2,0,1-0.2,1.5c-0.2,0.3-0.6,0.5-1,0.4c-0.4-0.2-0.2-0.4-0.2-0.8v-0.4c0.1-0.1,0.1-0.3,0-0.4
	c-0.1,0-0.2-0.1-0.2-0.2v-0.6h0.2c0.2,0,0.3,0.1,0.4,0.2h0.6c0.1,0,0.2-0.1,0.2-0.2c0.2,0,0.4,0,0.4,0.2
	C187.5,162.2,187.5,162.6,187.3,162.6l-0.2-0.2C187.5,162.6,187.3,162.6,187.3,162.6 M177.1,154.6c-0.2,0-0.2,0.2-0.4,0.2
	s-0.2-0.2,0-0.4V154c0.2-0.4,0.8,0,0.8-0.4c0-0.2,0.4-0.8,0.6-0.6c0,0.3,0,0.6-0.2,0.8c0,0.2-0.1,0.3-0.2,0.4
	c-0.2,0.1-0.3,0.2-0.4,0.4H177.1 M186.6,140.4l-0.2,0.2c0,0.1,0.1,0.2,0.2,0.2c0,0,0.4-0.2,0.2-0.4
	C186.9,140.2,186.6,140.4,186.6,140.4 M196.6,143.1c0-0.2-0.8,0-0.6,0.2C195.8,143.5,196.6,143.3,196.6,143.1 M197.7,139.8
	c-0.2,0-0.2-0.4-0.4,0c0,0.2-0.2,0.4,0,0.4c0.2,0.2,0.6,0.2,0.6,0c0.2-0.2,0.4-0.4,0.2-0.4H197.7 M193.1,138.5
	c-0.2,0.1-0.5,0.2-0.6,0.4c-0.4,0.4-0.8,0.8-1,1.3l-0.6,0.6c0,0-0.2,0.2,0,0.2s0.5-0.1,0.6-0.2c0.2,0,0.2-0.2,0.4-0.2
	s0.2-0.2,0.4-0.2l0.2-0.2l0.2-0.2l0.2-0.2c0.2-0.2,0.2-0.4,0.4-0.6C193.5,138.9,193.4,138.6,193.1,138.5
	C193.2,138.5,193.1,138.5,193.1,138.5 M200.8,138.3h-0.4c-0.4,0-0.4-0.2-0.6,0.2c-0.1,0.3-0.1,0.7,0,1c0.3-0.1,0.5-0.3,0.6-0.6
	C200.8,138.9,201.2,138.3,200.8,138.3 M202.1,140.8c0.2,0-0.2,0.4-0.4,0.6c-0.3,0.1-0.6,0.2-0.8,0.2c0,0-0.4,0.2-0.4,0v-0.4
	c0-0.2,0.2-0.2,0.4-0.2s0.2-0.2,0.4-0.2C201.5,140.7,201.8,140.7,202.1,140.8 M188.1,142.3c0.4,0,0.2,0.4,0,0.4l-0.4,0.4
	C187.1,143.5,187.7,142.5,188.1,142.3 M186.6,143.7c-0.2-0.2-0.6,0.4-0.8,0.6s-0.8,0.4-0.4,0.8c0.3,0.1,0.7,0,0.8-0.3v-0.1
	C186.5,144.5,186.7,144.2,186.6,143.7 M199.1,144.2c0,0.1-0.1,0.2-0.2,0.2v0.2c0,0.1,0.1,0.2,0.2,0.2h0.2c0.2,0,0.2-0.2,0.2-0.4
	C199.4,144.4,199.2,144.3,199.1,144.2C199.4,144.2,199.1,144,199.1,144.2 M199.1,145.4c-0.8-0.1-1.5,0.1-2.1,0.6
	c-0.4,0.4,0,1,0.6,1.3c0.4,0,0.7,0,1-0.2c0.2-0.2,0.2-0.6,0.4-0.8c0.2-0.1,0.5-0.2,0.6-0.4C199.7,145.6,199.4,145.4,199.1,145.4
	 M208.5,148.5c-0.6,0.2-1,0.7-1,1.3C207.6,149.7,208.9,148.2,208.5,148.5 M197.2,147.5c-0.2,0-0.8-0.4-0.8,0
	C196.4,148.2,197.2,147.9,197.2,147.5 M168.8,154.8c-0.3-0.1-0.6,0-0.8,0.2c-0.2,0-0.2,0.2-0.4,0.2h-0.4c-0.2,0.2,0,0.2,0.2,0.2h0.4
	c0.3,0.1,0.7-0.1,0.8-0.4C168.8,155,169,155,168.8,154.8 M165.8,156c-0.2,0.1-0.4,0.2-0.6,0.2c-0.2,0-0.2,0-0.2,0.2
	c-0.1,0.1-0.1,0.3,0,0.4h0.8C166.1,156.6,166.1,156.3,165.8,156 M178.6,154.3c-0.2,0.1-0.3,0.2-0.4,0.4l-0.2,0.2
	c0.2,0.2,0.2,0,0.4,0s0.3-0.1,0.4-0.2c0.2,0,0.2-0.2,0.4-0.2c0.3-0.2,0.5-0.4,0.6-0.6c0-0.4-0.6,0-0.6,0
	C179,154.1,178.8,154.1,178.6,154.3 M179,156.9c0.2,0.3,0.4,0.5,0.6,0.6c0.2,0,0.8,0.2,0.8-0.2c-0.1-0.1-0.2-0.3-0.2-0.4
	c0-0.2-0.2-0.2-0.4-0.2h-0.4c-0.2-0.2-0.4-0.3-0.6-0.4C178.8,156.4,178.9,156.7,179,156.9 M180.4,156.2c0,0.2,0.1,0.3,0.2,0.4
	c0.6,0.4,0.4-0.2,0.6-0.6c0-0.2,0.4-0.4,0.4-0.6C181.7,155,180.4,155.6,180.4,156.2 M181.7,157.5c0.2,0,0.2-0.2,0.4-0.2
	c0.2-0.2,0.4-0.2,0.6-0.4c0,0,0.2-0.4,0-0.4c-0.3,0.2-0.5,0.4-0.6,0.6c-0.5,0.2-0.9,0.5-1.3,0.8c0,0.2,0.2,0.2,0.4,0.2
	s0.2,0,0.2-0.2C181.5,157.5,181.7,157.5,181.7,157.5 M182.1,157.7c-0.3,0.1-0.6,0.3-0.8,0.4l-0.2,0.2c0,0.1,0.1,0.2,0.2,0.2
	c0.1,0.2,0.2,0.2,0.4,0.2c0.1,0,0.2-0.1,0.2-0.2v-0.2l0.2-0.2C182.3,158,182.3,157.8,182.1,157.7 M181.3,158.8
	C181.1,158.8,181.1,159,181.3,158.8c-0.2,0-0.4,0-0.4,0.2c-0.2,0-0.4,0.2-0.2,0.4h0.6l0.2-0.2C181.3,159.2,181.3,159.2,181.3,158.8
	 M189.4,162.6c-0.2,0-0.4,0-0.4,0.2s-0.2,0.4,0,0.4c0.6-0.2,1.2-0.4,1.7-0.8C190.2,162.3,189.7,162.4,189.4,162.6 M179.8,162.2
	c-0.3,0.2-0.5,0.5-0.6,0.8c0,0.4,0.4,0.4,0.8,0.4c0.9,0.3,1.8,0.1,2.5-0.4c0.3-0.4,0.4-0.8,0.2-1.3c-0.2-0.4-0.6,0-1,0
	C181.1,161.8,180.5,161.4,179.8,162.2 M193.8,161c0,0.4,0.2,0.4,0.2,0.4c0.3,0.1,0.6,0.2,0.8,0.4c0.1,0.2,0.2,0.3,0.4,0.4
	c0.2,0,0.4-0.2,0.4-0.4v-0.4c0-0.2,0.2-0.2,0-0.2c-0.1-0.2-0.4-0.4-0.6-0.4h-0.6c-0.2,0-0.3,0.1-0.4,0.2
	C194.2,161,194,160.7,193.8,161"/>
</svg>
