<?xml version="1.0" encoding="utf-8"?>
<!-- Generator: Adobe Illustrator 23.0.3, SVG Export Plug-In . SVG Version: 6.00 Build 0)  -->
<svg version="1.1" id="Layer_1" xmlns="http://www.w3.org/2000/svg" xmlns:xlink="http://www.w3.org/1999/xlink" x="0px" y="0px"
	 viewBox="0 0 48 48" style="enable-background:new 0 0 48 48;" xml:space="preserve">
<style type="text/css">
	.st0{fill:#0055B8;}
	.st1{fill:#67CFE3;}
	.st2{fill:#FFF;}
</style>
<g>
	<g id="Icons_5_">
		<circle class="st2" cx="13" cy="4" r="4"/>
		<path class="st2" d="M46,0H24c-1.1,0-2,0.9-2,2v8h-9C5.6,10,0,15.2,0,22c0,1.1,0.9,2,2,2s2-0.9,2-2c-0.1-2.8,1.5-5.4,4-6.8v13.9
			c0,0,0,0.1,0,0.1c0,0,0,0.1,0,0.1V46c0,1.1,0.9,2,2,2s2-0.9,2-2V31h2v15c0,1.1,0.9,2,2,2s2-0.9,2-2V29.3c0,0,0-0.1,0-0.1
			c0,0,0-0.1,0-0.1V14h4v7c0,1.1,0.9,2,2,2h22c1.1,0,2-0.9,2-2V2C48,0.9,47.1,0,46,0z M30,10h-4V4h18v15H26v-5h4c1.1,0,2-0.9,2-2
			S31.1,10,30,10z"/>
	</g>
</g>
</svg>
